<svg width="1869" height="153" viewBox="0 0 1869 153" fill="none" xmlns="http://www.w3.org/2000/svg">
<path d="M0 152.667L136.092 78.0064L238.917 58.5222L340.879 32.8341L415.333 2.54444L519.167 58.5222L623 0L726.833 17.8111L830.667 71.2444L934.5 0L1038.33 66.1555L1142.17 50.8889L1246 78.8778L1349.83 10.1778L1453.67 20.3555L1557.5 66.1555L1661.33 45.8L1747.17 109.377L1869 152.667L1765.17 152.667H1661.33H1557.5H1453.67H1349.83H1246H1142.17H1038.33H934.5H830.667H726.833H623H519.167H415.333H311.5H207.667H103.833L0 152.667Z" fill="#d9a0ad"/>
<path d="M0 152.667L82.9515 121.925L207.667 91.3987L311.5 14.813L415.333 37.7887L519.167 63.3173H623L726.833 86.293L830.667 53.1058L934.5 4.60156L1038.33 81.1873L1142.17 42.8944L1246 4.60156L1349.83 7.15442L1453.67 65.8701L1557.5 48.0001L1661.33 37.7887L1765.17 119.415L1869 152.667H1765.17H1661.33H1557.5H1453.67H1349.83H1246H1142.17H1038.33H934.5H830.667H726.833H623H519.167H415.333H311.5H207.667H103.833H0Z" fill="#a86575"/>
<path d="M0 152.667L71.2864 136.355L207.667 56.1676L311.5 106.957L415.333 53.6282L519.167 84.1017L623 99.3385L726.833 68.8649L830.667 79.0228L934.5 66.3255L1038.33 71.4044L1142.17 96.799L1246 46.0098L1349.83 101.878L1453.67 73.9439L1557.5 58.7071L1661.33 81.5623L1765.17 117.533L1869 152.667H1765.17H1661.33H1557.5H1453.67H1349.83H1246H1142.17H1038.33H934.5H830.667H726.833H623H519.167H415.333H311.5H207.667H103.833H0Z" fill="#8f3f53"/>
<path d="M0 152.667L103.833 122.855L207.667 88.4563H311.5L415.333 125.148L519.167 97.6293L623 86.1631L726.833 95.3361L830.667 106.802L934.5 102.216L1038.33 125.148L1142.17 132.028L1246 115.975L1349.83 95.3361L1453.67 106.802H1557.5L1661.33 111.389L1765.17 132.028L1869 152.667H1765.17H1661.33H1557.5H1453.67H1349.83H1246H1142.17H1038.33H934.5H830.667H726.833H623H519.167H415.333H311.5H207.667H103.833H0Z" fill="#752b3d"/>
</svg>
